<?xml version="1.0" encoding="utf-8"?>
<!-- Generator: Adobe Illustrator 21.1.0, SVG Export Plug-In . SVG Version: 6.00 Build 0)  -->
<svg version="1.1" id="Layer_1" xmlns="http://www.w3.org/2000/svg" xmlns:xlink="http://www.w3.org/1999/xlink" x="0px" y="0px"
	 viewBox="0 0 295 76" style="enable-background:new 0 0 295 76;" xml:space="preserve">
<style type="text/css">
	.st0{fill:#969696;}
	.st1{clip-path:url(#SVGID_2_);}
	.st2{fill:url(#SVGID_3_);}
	.st3{fill:url(#SVGID_4_);}
	.st4{fill:url(#SVGID_5_);}
	.st5{fill:url(#SVGID_6_);}
	.st6{fill:url(#SVGID_7_);}
	.st7{fill:url(#SVGID_8_);}
	.st8{fill:url(#SVGID_9_);}
	.st9{fill:url(#SVGID_10_);}
</style>
<title>logo-lt</title>
<g id="Logos">
	<path class="st0" d="M89.6,37.9c0-4.5,0.8-7.9,2.4-10.3c1.6-2.4,4.4-3.8,7.3-3.6c1.6-0.1,3.2,0.3,4.6,1c1.2,0.7,2.3,1.6,3,2.8
		c0.8,1.4,1.4,2.8,1.7,4.4c0.3,1.9,0.5,3.8,0.5,5.7c0,4.5-0.8,7.9-2.4,10.3s-4,3.6-7.4,3.6c-1.6,0.1-3.1-0.3-4.5-1
		c-1.2-0.7-2.2-1.6-3-2.8c-0.8-1.4-1.4-2.8-1.7-4.4C89.8,41.7,89.6,39.8,89.6,37.9z M92.9,37.9c0,1.4,0.1,2.8,0.3,4.2
		c0.2,1.2,0.5,2.4,1,3.5c0.4,0.9,1.1,1.8,1.9,2.4c0.9,0.6,2,1,3.1,0.9c2,0.1,3.9-0.9,4.9-2.7c1-1.8,1.5-4.6,1.5-8.4
		c0-1.4-0.1-2.8-0.3-4.2c-0.2-1.2-0.5-2.4-1-3.5c-0.4-1-1.1-1.8-2-2.4c-0.9-0.6-2-0.9-3.1-0.9c-2-0.1-3.9,0.9-4.8,2.7
		C93.4,31.3,92.9,34.2,92.9,37.9z"/>
	<path class="st0" d="M114.6,38.9V38c0-0.4,0-0.8-0.1-1.2c0-0.4-0.1-0.8-0.1-1.2s-0.1-0.7-0.1-1h-2.6v-2.5h5.1l0.4,2.7h0.2
		c0.7-0.9,1.6-1.7,2.6-2.3c3.3-1.6,7.3-1,10.1,1.4c1.4,1.5,2.1,4,2.1,7.4c0,1.5-0.2,3-0.7,4.4c-0.5,1.2-1.1,2.3-2,3.3
		c-0.9,0.9-2,1.6-3.2,2.1c-1.3,0.5-2.7,0.7-4.1,0.7c-0.5,0-0.9,0-1.4-0.1c-0.4,0-0.8-0.1-1.2-0.2c-0.3-0.1-0.7-0.2-1-0.3
		c-0.4-0.1-0.7-0.2-1.1-0.4v7.1h-3L114.6,38.9L114.6,38.9z M123.4,34.5c-0.8,0-1.5,0.1-2.2,0.4c-0.6,0.3-1.3,0.7-1.8,1.1
		c-0.5,0.4-0.9,1-1.3,1.5c-0.3,0.5-0.5,1.1-0.6,1.7V48c0.6,0.4,1.2,0.7,1.9,0.9c0.9,0.2,1.9,0.3,2.8,0.3c1.8,0.1,3.6-0.6,4.9-2
		c1.4-1.7,2-3.8,1.9-5.9c0.1-1.8-0.3-3.6-1.3-5.1C126.9,35.1,125.4,34.5,123.4,34.5z"/>
	<path class="st0" d="M153.7,49c-0.5,0.4-1,0.8-1.6,1.2c-0.6,0.4-1.4,0.7-2.1,0.9c-0.7,0.3-1.5,0.5-2.3,0.6
		c-0.8,0.1-1.6,0.2-2.4,0.2c-1.4,0-2.8-0.2-4.1-0.7c-1.1-0.5-2.1-1.1-3-2c-0.8-0.9-1.4-2-1.8-3.2c-0.4-1.4-0.6-2.8-0.6-4.2
		c0-1.5,0.2-2.9,0.7-4.3c0.4-1.2,1-2.3,1.9-3.2c0.9-0.9,1.9-1.5,3.1-1.9c1.3-0.4,2.6-0.7,4-0.7c1.1,0,2.2,0.1,3.2,0.4
		c1.1,0.3,2,0.8,2.8,1.6c0.8,0.9,1.5,2,1.9,3.2c0.4,1.7,0.6,3.5,0.5,5.3H139c-0.2,1.9,0.5,3.8,1.9,5.2c1.4,1.2,3.2,1.8,5,1.7
		c0.7,0,1.4-0.1,2.1-0.3c0.7-0.2,1.3-0.4,1.9-0.6c0.6-0.2,1.1-0.5,1.6-0.8c0.4-0.2,0.8-0.5,1.1-0.8L153.7,49z M145.6,34.2
		c-0.8,0-1.6,0.1-2.4,0.3c-0.7,0.2-1.4,0.5-2,0.9c-0.6,0.4-1.1,1-1.4,1.7c-0.4,0.8-0.6,1.6-0.7,2.5h12c-0.1-1.5-0.6-2.9-1.6-4
		C148.4,34.7,147,34.2,145.6,34.2L145.6,34.2z"/>
	<path class="st0" d="M159.6,38.9V38c0-0.4,0-0.8-0.1-1.2c0-0.4-0.1-0.8-0.1-1.2s-0.1-0.7-0.1-1h-2.6v-2.5h5.2l0.3,3.1h0.2
		c0.3-0.5,0.6-0.9,1-1.3c0.5-0.4,1-0.8,1.5-1.2c0.6-0.3,1.2-0.6,1.9-0.8c0.7-0.2,1.5-0.3,2.2-0.3c1,0,2.1,0.1,3.1,0.4
		c0.9,0.2,1.7,0.7,2.3,1.4c0.7,0.8,1.2,1.7,1.4,2.7c0.4,1.4,0.5,2.9,0.5,4.3v11.1h-3V41c0.1-1.7-0.2-3.3-1-4.8
		c-0.7-1.1-1.9-1.6-3.8-1.6c-0.7,0-1.3,0.1-1.9,0.4c-0.6,0.3-1.2,0.6-1.7,1.1c-0.5,0.4-1,0.9-1.3,1.5c-0.4,0.5-0.7,1.2-0.8,1.8v12.1
		h-3V38.9H159.6z"/>
	<path class="st0" d="M226.8,38.9V38c0-0.4,0-0.8-0.1-1.2c0-0.4-0.1-0.8-0.1-1.2s-0.1-0.7-0.1-1h-2.6v-2.5h5.2l0.3,3.1h0.2
		c0.3-0.5,0.6-0.9,1-1.3c0.5-0.4,1-0.8,1.5-1.2c0.6-0.3,1.2-0.6,1.9-0.8c0.7-0.2,1.5-0.3,2.2-0.3c1,0,2.1,0.1,3.1,0.4
		c0.9,0.2,1.7,0.7,2.3,1.4c0.7,0.8,1.2,1.7,1.4,2.7c0.4,1.4,0.5,2.9,0.5,4.3v11.1h-3V41c0.1-1.7-0.2-3.3-1-4.8
		c-0.7-1.1-1.9-1.6-3.8-1.6c-0.7,0-1.3,0.1-1.9,0.4c-0.6,0.3-1.2,0.6-1.7,1.1c-0.5,0.4-1,0.9-1.3,1.5c-0.4,0.5-0.7,1.2-0.8,1.8v12.1
		h-3V38.9H226.8z"/>
	<path class="st0" d="M266.1,49c-0.5,0.4-1,0.8-1.6,1.2c-0.6,0.4-1.4,0.7-2.1,0.9c-0.7,0.3-1.5,0.5-2.3,0.6
		c-0.8,0.1-1.6,0.2-2.4,0.2c-1.4,0-2.8-0.2-4.1-0.7c-1.1-0.5-2.1-1.1-3-2c-0.8-0.9-1.4-2-1.8-3.2c-0.4-1.4-0.6-2.8-0.6-4.2
		c0-1.5,0.2-2.9,0.7-4.3c0.4-1.2,1-2.3,1.9-3.2c0.9-0.9,1.9-1.5,3.1-1.9c1.3-0.4,2.6-0.7,4-0.7c1.1,0,2.2,0.1,3.2,0.4
		c1.1,0.3,2,0.8,2.8,1.6c0.8,0.9,1.5,2,1.9,3.2c0.4,1.7,0.6,3.5,0.5,5.3h-14.9c-0.2,1.9,0.5,3.8,1.9,5.2c1.4,1.2,3.2,1.8,5,1.7
		c0.7,0,1.4-0.1,2.1-0.3c0.7-0.2,1.3-0.4,1.9-0.6c0.6-0.2,1.1-0.5,1.6-0.8c0.4-0.2,0.8-0.5,1.1-0.8L266.1,49z M258,34.2
		c-0.8,0-1.6,0.1-2.4,0.3c-0.7,0.2-1.4,0.5-2,0.9c-0.6,0.4-1.1,1-1.4,1.7c-0.4,0.8-0.6,1.6-0.7,2.5h12c-0.1-1.5-0.6-2.9-1.6-4
		C260.8,34.7,259.4,34.2,258,34.2z"/>
	<path class="st0" d="M288.4,48.9c-0.1-0.3-0.1-0.6-0.2-1c-0.1-0.4-0.1-0.7-0.1-1.1c0-0.4-0.1-0.8-0.1-1.1V24.4h-3v8.1l-1.1-0.3
		c-0.3-0.1-0.7-0.2-1-0.2c-0.4-0.1-0.8-0.1-1.2-0.1h-1.4c-1.4,0-2.7,0.2-4,0.7c-1.2,0.4-2.2,1.1-3.1,1.9c-0.9,0.9-1.6,1.9-2,3.1
		c-0.5,1.4-0.7,2.8-0.7,4.3c0,3.4,0.7,6,2.1,7.6s3.5,2.4,6.4,2.4c1.4,0.1,2.7-0.3,3.9-1c1-0.6,1.9-1.4,2.5-2.4h0.2l0.4,3h5.2V49
		L288.4,48.9L288.4,48.9z M284.9,44.5c-0.2,1.4-0.8,2.6-1.8,3.6c-1,0.9-2.4,1.3-3.7,1.2c-0.9,0-1.9-0.2-2.7-0.6
		c-0.7-0.4-1.3-0.9-1.8-1.6c-0.5-0.7-0.8-1.6-1-2.4c-0.2-1-0.3-2-0.3-3c0-2.6,0.6-4.5,1.8-5.7c1.3-1.2,3-1.9,4.8-1.8
		c0.9,0,1.9,0.1,2.8,0.3c0.7,0.2,1.3,0.5,1.9,0.8L284.9,44.5L284.9,44.5z"/>
	<path class="st0" d="M206.2,51.4v-2.6h6.7V34.7h-6.7v-2.6h9.8v16.7h6.6v2.6C222.6,51.4,206.2,51.4,206.2,51.4z M216.9,27l-2.5-2.5
		l-2.5,2.5l2.5,2.5L216.9,27z"/>
	<path class="st0" d="M198.2,24.4l-6.4,10.3l-6.4-10.3h-3v27h3.1V30.7l5.1,7.9c0.4,0.7,1.3,0.9,1.9,0.5c0.2-0.1,0.4-0.3,0.5-0.5
		l5.1-7.9v20.7h3.1v-27L198.2,24.4z"/>
	<g>
		<defs>
			<path id="SVGID_1_" d="M70.9,34.3L52.4,23.6L41.7,5.1c-1.2-2-3.8-2.7-5.8-1.5c-0.6,0.4-1.2,0.9-1.5,1.5L23.7,23.6L5.2,34.3
				c-2,1.2-2.7,3.8-1.5,5.8c0.4,0.6,0.9,1.2,1.5,1.5l18.5,10.7l10.7,18.5c1.2,2,3.8,2.7,5.8,1.5c0.6-0.4,1.2-0.9,1.5-1.5l10.7-18.5
				l18.5-10.7c2-1.2,2.7-3.8,1.5-5.8C72.1,35.2,71.5,34.7,70.9,34.3z M60.6,38L60.6,38L38,60.6l0,0L15.4,38l0,0L38,15.4l0,0L60.6,38
				z M51.6,38L51.6,38L38,51.6l0,0L24.4,38l0,0L38,24.4l0,0L51.6,38z"/>
		</defs>
		<clipPath id="SVGID_2_">
			<use xlink:href="#SVGID_1_"  style="overflow:visible;"/>
		</clipPath>
		<g class="st1">
			
				<image style="overflow:visible;enable-background:new    ;" width="102" height="102" xlink:href="D6A155291501D18F.png"  transform="matrix(0.9902 0 0 1 -12.22 -13)">
			</image>
		</g>
	</g>
	
		<linearGradient id="SVGID_3_" gradientUnits="userSpaceOnUse" x1="23.65" y1="450.4987" x2="60.65" y2="450.4987" gradientTransform="matrix(1 0 0 1 0 -430)">
		<stop  offset="0" style="stop-color:#E6AF7B"/>
		<stop  offset="0.42" style="stop-color:#F3C07A"/>
		<stop  offset="0.8" style="stop-color:#C5A48A"/>
		<stop  offset="1" style="stop-color:#87A9A0"/>
	</linearGradient>
	<path class="st2" d="M34.3,5.1L23.6,23.6l14.3-8.3l0,0L60.6,38l0,0l-19-32.9c-1.2-2-3.8-2.7-5.8-1.5C35.2,3.9,34.7,4.5,34.3,5.1z"
		/>
	
		<linearGradient id="SVGID_4_" gradientUnits="userSpaceOnUse" x1="55.5014" y1="453.64" x2="55.5014" y2="490.64" gradientTransform="matrix(1 0 0 1 0 -430)">
		<stop  offset="0" style="stop-color:#BACC9B"/>
		<stop  offset="0.29" style="stop-color:#9FCFA1"/>
		<stop  offset="0.52" style="stop-color:#81BEA5"/>
		<stop  offset="0.79" style="stop-color:#7EA3A3"/>
		<stop  offset="1" style="stop-color:#8D7997"/>
	</linearGradient>
	<path class="st3" d="M52.4,23.6L60.7,38l0,0L38,60.6l0,0l32.9-19c2-1.2,2.7-3.8,1.5-5.8c-0.4-0.6-0.9-1.2-1.5-1.5L52.4,23.6z"/>
	
		<linearGradient id="SVGID_5_" gradientUnits="userSpaceOnUse" x1="20.4986" y1="482.35" x2="20.4986" y2="445.35" gradientTransform="matrix(1 0 0 1 0 -430)">
		<stop  offset="0" style="stop-color:#A85684"/>
		<stop  offset="0.27" style="stop-color:#C35074"/>
		<stop  offset="0.53" style="stop-color:#E27D69"/>
		<stop  offset="1" style="stop-color:#EDA472"/>
		<stop  offset="1" style="stop-color:#C9BC8F"/>
	</linearGradient>
	<path class="st4" d="M15.4,38L38,15.4l0,0l-32.9,19c-2,1.2-2.7,3.8-1.5,5.8c0.4,0.6,0.9,1.2,1.5,1.5l18.5,10.7L15.4,38z"/>
	
		<linearGradient id="SVGID_6_" gradientUnits="userSpaceOnUse" x1="15.36" y1="485.5013" x2="52.36" y2="485.5013" gradientTransform="matrix(1 0 0 1 0 -430)">
		<stop  offset="0" style="stop-color:#F6796C"/>
		<stop  offset="0.25" style="stop-color:#C5707C"/>
		<stop  offset="0.49" style="stop-color:#927393"/>
		<stop  offset="0.78" style="stop-color:#757FA3"/>
		<stop  offset="1" style="stop-color:#60A4AF"/>
	</linearGradient>
	<path class="st5" d="M38,60.6L38,60.6L15.4,38l0,0l19,32.9c1.2,2,3.8,2.7,5.8,1.5c0.6-0.4,1.2-0.9,1.5-1.5l10.7-18.5L38,60.6z"/>
	
		<linearGradient id="SVGID_7_" gradientUnits="userSpaceOnUse" x1="34.6" y1="478.2" x2="48.18" y2="464.62" gradientTransform="matrix(1 0 0 1 0 -430)">
		<stop  offset="0" style="stop-color:#757FA3"/>
		<stop  offset="1" style="stop-color:#60A4AF"/>
	</linearGradient>
	<polygon class="st6" points="38,38 38,51.6 51.6,38 	"/>
	
		<linearGradient id="SVGID_8_" gradientUnits="userSpaceOnUse" x1="-584.0125" y1="-1003.61" x2="-597.5825" y2="-990.03" gradientTransform="matrix(0 1 -1 0 -962.21 632.21)">
		<stop  offset="0" style="stop-color:#C5707C"/>
		<stop  offset="1" style="stop-color:#ED986C"/>
	</linearGradient>
	<polygon class="st7" points="38,38 24.4,38 38,51.6 	"/>
	
		<linearGradient id="SVGID_9_" gradientUnits="userSpaceOnUse" x1="-2052.21" y1="-371.4" x2="-2065.79" y2="-357.82" gradientTransform="matrix(-1 0 0 -1 -2024.41 -330)">
		<stop  offset="0" style="stop-color:#F3C07A"/>
		<stop  offset="1" style="stop-color:#ED986C"/>
	</linearGradient>
	<polygon class="st8" points="38,38 38,24.4 24.4,38 	"/>
	
		<linearGradient id="SVGID_10_" gradientUnits="userSpaceOnUse" x1="-1420.01" y1="1096.8099" x2="-1433.5801" y2="1110.38" gradientTransform="matrix(0 -1 1 0 -1062.21 -1392.21)">
		<stop  offset="0" style="stop-color:#5CB6A5"/>
		<stop  offset="1" style="stop-color:#99CC99"/>
	</linearGradient>
	<polygon class="st9" points="38,38 51.6,38 38,24.4 	"/>
</g>
</svg>
