<?xml version="1.0" encoding="utf-8"?>
<!-- Generator: Adobe Illustrator 21.1.0, SVG Export Plug-In . SVG Version: 6.00 Build 0)  -->
<svg version="1.1" id="Layer_1" xmlns="http://www.w3.org/2000/svg" xmlns:xlink="http://www.w3.org/1999/xlink" x="0px" y="0px"
	 viewBox="0 0 299 79" style="enable-background:new 0 0 299 79;" xml:space="preserve">
<style type="text/css">
	.st0{display:none;}
	.st1{display:inline;fill:#323232;}
	.st2{fill:#FFFFFF;}
	.st3{clip-path:url(#SVGID_2_);}
	.st4{fill:url(#SVGID_3_);}
	.st5{fill:url(#SVGID_4_);}
	.st6{fill:url(#SVGID_5_);}
	.st7{fill:url(#SVGID_6_);}
	.st8{fill:url(#SVGID_7_);}
	.st9{fill:url(#SVGID_8_);}
	.st10{fill:url(#SVGID_9_);}
	.st11{fill:url(#SVGID_10_);}
</style>
<g id="Backgrounds" class="st0">
	<rect x="-2" y="-1" class="st1" width="360" height="360"/>
</g>
<g id="Logos">
	<g>
		<g>
			<path class="st2" d="M90.6,38.9c0-4.5,0.8-7.9,2.4-10.3c1.6-2.4,4-3.6,7.3-3.6c1.8,0,3.3,0.3,4.6,1c1.2,0.7,2.3,1.6,3,2.8
				c0.8,1.2,1.3,2.7,1.7,4.4c0.3,1.7,0.5,3.6,0.5,5.7c0,4.5-0.8,7.9-2.4,10.3c-1.6,2.4-4,3.6-7.4,3.6c-1.8,0-3.3-0.3-4.5-1
				s-2.2-1.6-3-2.8s-1.3-2.7-1.7-4.4C90.8,43,90.6,41,90.6,38.9z M93.9,38.9c0,1.5,0.1,2.9,0.3,4.2c0.2,1.3,0.5,2.5,1,3.5
				s1.1,1.8,1.9,2.4c0.8,0.6,1.8,0.9,3.1,0.9c2.2,0,3.8-0.9,4.9-2.7c1-1.8,1.5-4.6,1.5-8.4c0-1.5-0.1-2.9-0.3-4.2s-0.5-2.5-1-3.5
				s-1.1-1.8-2-2.4c-0.8-0.6-1.9-0.9-3.1-0.9c-2.2,0-3.8,0.9-4.8,2.7S93.9,35.2,93.9,38.9z"/>
			<path class="st2" d="M115.6,39.9c0-0.2,0-0.5,0-0.9s0-0.8-0.1-1.2c0-0.4-0.1-0.8-0.1-1.2s-0.1-0.7-0.1-1h-2.6v-2.5h5.1l0.4,2.7
				h0.2c0.7-0.9,1.6-1.7,2.6-2.3c1.1-0.6,2.4-0.9,3.9-0.9c2.8,0,4.8,0.8,6.2,2.3s2.1,4,2.1,7.4c0,1.6-0.2,3.1-0.7,4.4
				c-0.5,1.3-1.2,2.4-2,3.3c-0.9,0.9-1.9,1.6-3.2,2.1c-1.2,0.5-2.6,0.7-4.1,0.7c-0.5,0-1,0-1.4-0.1c-0.4,0-0.8-0.1-1.2-0.2
				c-0.3-0.1-0.7-0.1-1-0.3c-0.3-0.1-0.7-0.2-1.1-0.4v7.1h-3v-19H115.6z M124.4,35.5c-0.8,0-1.5,0.1-2.2,0.4
				c-0.7,0.3-1.3,0.7-1.8,1.1c-0.5,0.5-1,1-1.3,1.5c-0.3,0.6-0.5,1.1-0.6,1.7V49c0.6,0.4,1.2,0.7,1.9,0.9s1.6,0.3,2.8,0.3
				c2.1,0,3.7-0.7,4.9-2s1.9-3.3,1.9-5.9c0-2.2-0.4-3.9-1.3-5.1C127.9,36.1,126.4,35.5,124.4,35.5z"/>
			<path class="st2" d="M154.7,50c-0.5,0.4-1,0.8-1.6,1.2s-1.3,0.7-2.1,0.9c-0.7,0.3-1.5,0.5-2.3,0.6s-1.6,0.2-2.4,0.2
				c-1.5,0-2.9-0.2-4.1-0.7c-1.2-0.5-2.2-1.2-3-2c-0.8-0.9-1.4-1.9-1.8-3.2c-0.4-1.2-0.6-2.6-0.6-4.2c0-1.6,0.2-3.1,0.7-4.3
				c0.4-1.3,1.1-2.3,1.9-3.2c0.8-0.8,1.9-1.5,3.1-1.9c1.2-0.4,2.6-0.7,4-0.7c1.1,0,2.1,0.1,3.2,0.4c1.1,0.3,2,0.8,2.8,1.6
				s1.4,1.9,1.9,3.2c0.4,1.4,0.6,3.2,0.5,5.3H140c0,2.3,0.6,4,1.9,5.2c1.2,1.1,2.9,1.7,5,1.7c0.7,0,1.4-0.1,2.1-0.3
				c0.7-0.2,1.3-0.4,1.9-0.6c0.6-0.2,1.2-0.5,1.6-0.8c0.5-0.3,0.8-0.5,1.1-0.8L154.7,50z M146.6,35.2c-0.8,0-1.6,0.1-2.4,0.3
				c-0.8,0.2-1.4,0.5-2,0.9s-1.1,1-1.4,1.7c-0.4,0.7-0.6,1.5-0.7,2.5h12c-0.1-1.7-0.7-3-1.6-4C149.4,35.7,148.1,35.2,146.6,35.2z"/>
			<path class="st2" d="M160.6,39.9c0-0.2,0-0.5,0-0.9s0-0.8-0.1-1.2c0-0.4-0.1-0.8-0.1-1.2s-0.1-0.7-0.1-1h-2.6v-2.5h5.2l0.3,3.1
				h0.2c0.3-0.4,0.6-0.9,1-1.3c0.4-0.4,0.9-0.8,1.5-1.2c0.6-0.3,1.2-0.6,1.9-0.8s1.4-0.3,2.2-0.3c1.2,0,2.2,0.1,3.1,0.4
				c0.9,0.3,1.7,0.7,2.3,1.4s1.1,1.5,1.4,2.7c0.3,1.1,0.5,2.5,0.5,4.3v11.1h-3V42c0-2.1-0.3-3.7-1-4.8s-1.9-1.6-3.8-1.6
				c-0.7,0-1.3,0.1-1.9,0.4c-0.6,0.3-1.2,0.6-1.7,1.1c-0.5,0.4-1,0.9-1.3,1.5c-0.4,0.6-0.7,1.2-0.8,1.8v12.1h-3V39.9H160.6z"/>
			<path class="st2" d="M227.8,39.9c0-0.2,0-0.5,0-0.9s0-0.8-0.1-1.2c0-0.4-0.1-0.8-0.1-1.2s-0.1-0.7-0.1-1h-2.6v-2.5h5.2l0.3,3.1
				h0.2c0.3-0.4,0.6-0.9,1-1.3s0.9-0.8,1.5-1.2c0.6-0.3,1.2-0.6,1.9-0.8c0.7-0.2,1.4-0.3,2.2-0.3c1.2,0,2.2,0.1,3.1,0.4
				c0.9,0.3,1.7,0.7,2.3,1.4c0.6,0.7,1.1,1.5,1.4,2.7c0.3,1.1,0.5,2.5,0.5,4.3v11.1h-3V42c0-2.1-0.3-3.7-1-4.8s-1.9-1.6-3.8-1.6
				c-0.7,0-1.3,0.1-1.9,0.4c-0.6,0.3-1.2,0.6-1.7,1.1c-0.5,0.4-1,0.9-1.3,1.5c-0.4,0.6-0.7,1.2-0.8,1.8v12.1h-3V39.9H227.8z"/>
			<path class="st2" d="M267.1,50c-0.5,0.4-1,0.8-1.6,1.2s-1.3,0.7-2.1,0.9c-0.7,0.3-1.5,0.5-2.3,0.6s-1.6,0.2-2.4,0.2
				c-1.5,0-2.9-0.2-4.1-0.7s-2.2-1.2-3-2c-0.8-0.9-1.4-1.9-1.8-3.2c-0.4-1.2-0.6-2.6-0.6-4.2c0-1.6,0.2-3.1,0.7-4.3
				c0.4-1.3,1.1-2.3,1.9-3.2c0.8-0.8,1.9-1.5,3.1-1.9s2.6-0.7,4-0.7c1.1,0,2.1,0.1,3.2,0.4c1.1,0.3,2,0.8,2.8,1.6s1.4,1.9,1.9,3.2
				c0.4,1.4,0.6,3.2,0.5,5.3h-14.9c0,2.3,0.6,4,1.9,5.2c1.2,1.1,2.9,1.7,5,1.7c0.7,0,1.4-0.1,2.1-0.3s1.3-0.4,1.9-0.6
				c0.6-0.2,1.2-0.5,1.6-0.8c0.5-0.3,0.8-0.5,1.1-0.8L267.1,50z M259,35.2c-0.8,0-1.6,0.1-2.4,0.3s-1.4,0.5-2,0.9s-1.1,1-1.4,1.7
				c-0.4,0.7-0.6,1.5-0.7,2.5h12c-0.1-1.7-0.7-3-1.6-4C261.8,35.7,260.5,35.2,259,35.2z"/>
			<g>
				<path class="st2" d="M289.4,49.9c-0.1-0.3-0.1-0.6-0.2-1s-0.1-0.8-0.1-1.1c0-0.4-0.1-0.8-0.1-1.1s0-0.6,0-0.9V25.4h-3v8.1
					c-0.4-0.1-0.7-0.2-1.1-0.3c-0.3-0.1-0.7-0.2-1-0.2c-0.4-0.1-0.8-0.1-1.2-0.1c-0.4,0-0.9,0-1.4,0c-1.5,0-2.8,0.2-4,0.7
					c-1.2,0.4-2.2,1.1-3.1,1.9c-0.9,0.8-1.5,1.9-2,3.1c-0.5,1.2-0.7,2.7-0.7,4.3c0,3.4,0.7,6,2.1,7.6s3.5,2.4,6.4,2.4
					c1.5,0,2.8-0.3,3.9-1s2-1.5,2.5-2.4h0.2l0.4,3h5.2V50h-2.8V49.9z M285.9,45.5c-0.3,1.6-0.9,2.8-1.8,3.6s-2.1,1.2-3.7,1.2
					c-1.1,0-2-0.2-2.7-0.6c-0.7-0.4-1.3-0.9-1.8-1.6c-0.4-0.7-0.8-1.5-1-2.4s-0.3-1.9-0.3-3c0-2.6,0.6-4.5,1.8-5.7s2.8-1.8,4.8-1.8
					c1.2,0,2.1,0.1,2.8,0.3c0.7,0.2,1.3,0.5,1.9,0.8L285.9,45.5L285.9,45.5z"/>
			</g>
			<path class="st2" d="M207.2,52.4v-2.6h6.7V35.7h-6.7v-2.6h9.8v16.7h6.6v2.6L207.2,52.4L207.2,52.4z M217.9,28l-2.5-2.5l-2.5,2.5
				l2.5,2.5L217.9,28z"/>
			<path class="st2" d="M199.2,25.4l-6.4,10.3l-6.4-10.3h-3v27h3.1V31.7l5.1,7.9c0.6,0.9,1.9,0.9,2.4,0l5.1-7.9v20.7h3.1v-27H199.2z
				"/>
		</g>
		<g>
			<g>
				<g>
					<defs>
						<path id="SVGID_1_" d="M71.9,35.3L53.4,24.6L42.7,6.1c-1.6-2.8-5.7-2.8-7.3,0L24.7,24.6L6.2,35.3c-2.8,1.6-2.8,5.7,0,7.3
							l18.5,10.7l10.7,18.5c1.6,2.8,5.7,2.8,7.3,0l10.7-18.5l18.5-10.7C74.7,41,74.7,37,71.9,35.3z M61.6,39L61.6,39L39,61.6l0,0
							l0,0l0,0l0,0L16.4,39l0,0l0,0l0,0l0,0L39,16.4l0,0l0,0l0,0l0,0L61.6,39L61.6,39L61.6,39L61.6,39z M52.6,39L52.6,39L39,52.6
							l0,0L25.4,39l0,0L39,25.4l0,0L52.6,39z"/>
					</defs>
					<clipPath id="SVGID_2_">
						<use xlink:href="#SVGID_1_"  style="overflow:visible;"/>
					</clipPath>
					<g class="st3">
						
							<image style="overflow:visible;enable-background:new    ;" width="101" height="102" xlink:href="B9C3AD2CB92A1979.png"  transform="matrix(1 0 0 1 -11.2188 -12)">
						</image>
					</g>
				</g>
			</g>
			<g>
				
					<linearGradient id="SVGID_3_" gradientUnits="userSpaceOnUse" x1="24.6473" y1="338.5" x2="61.6473" y2="338.5" gradientTransform="matrix(1 0 0 -1 0 360)">
					<stop  offset="0" style="stop-color:#E6AF7B"/>
					<stop  offset="0.4239" style="stop-color:#F3C07A"/>
					<stop  offset="0.7983" style="stop-color:#C5A48A"/>
					<stop  offset="1" style="stop-color:#87A9A0"/>
				</linearGradient>
				<path class="st4" d="M35.3,6.1L24.6,24.6l14.3-8.3l0,0l0,0l0,0l0,0L61.6,39l0,0l-19-32.9C41,3.3,37,3.3,35.3,6.1z"/>
				
					<linearGradient id="SVGID_4_" gradientUnits="userSpaceOnUse" x1="56.5" y1="335.3573" x2="56.5" y2="298.3573" gradientTransform="matrix(1 0 0 -1 0 360)">
					<stop  offset="0" style="stop-color:#BACC9B"/>
					<stop  offset="0.2943" style="stop-color:#9FCFA1"/>
					<stop  offset="0.5225" style="stop-color:#81BEA5"/>
					<stop  offset="0.7939" style="stop-color:#7EA3A3"/>
					<stop  offset="1" style="stop-color:#8D7997"/>
				</linearGradient>
				<path class="st5" d="M53.4,24.6L61.7,39l0,0l0,0l0,0l0,0L39,61.6l0,0l32.9-19c2.8-1.6,2.8-5.7,0-7.3L53.4,24.6z"/>
				
					<linearGradient id="SVGID_5_" gradientUnits="userSpaceOnUse" x1="21.5" y1="306.6504" x2="21.5" y2="343.6504" gradientTransform="matrix(1 0 0 -1 0 360)">
					<stop  offset="0" style="stop-color:#A85684"/>
					<stop  offset="0.2738" style="stop-color:#C35074"/>
					<stop  offset="0.5296" style="stop-color:#E27D69"/>
					<stop  offset="1" style="stop-color:#EDA472"/>
					<stop  offset="1" style="stop-color:#C9BC8F"/>
				</linearGradient>
				<path class="st6" d="M16.4,39L39,16.4l0,0l-32.9,19c-2.8,1.6-2.8,5.7,0,7.3l18.5,10.7L16.4,39L16.4,39L16.4,39L16.4,39L16.4,39z
					"/>
				
					<linearGradient id="SVGID_6_" gradientUnits="userSpaceOnUse" x1="16.3597" y1="303.5" x2="53.3597" y2="303.5" gradientTransform="matrix(1 0 0 -1 0 360)">
					<stop  offset="4.318467e-04" style="stop-color:#F6796C"/>
					<stop  offset="0.2524" style="stop-color:#C5707C"/>
					<stop  offset="0.491" style="stop-color:#927393"/>
					<stop  offset="0.7803" style="stop-color:#757FA3"/>
					<stop  offset="1" style="stop-color:#60A4AF"/>
				</linearGradient>
				<path class="st7" d="M39,61.6L39,61.6L39,61.6L39,61.6L39,61.6L16.4,39l0,0l19,32.9c1.6,2.8,5.7,2.8,7.3,0l10.7-18.5L39,61.6z"
					/>
				
					<linearGradient id="SVGID_7_" gradientUnits="userSpaceOnUse" x1="35.6" y1="310.8" x2="49.1768" y2="324.3768" gradientTransform="matrix(1 0 0 -1 0 360)">
					<stop  offset="0" style="stop-color:#757FA3"/>
					<stop  offset="1" style="stop-color:#60A4AF"/>
				</linearGradient>
				<polygon class="st8" points="39,39 39,52.6 52.6,39 				"/>
				
					<linearGradient id="SVGID_8_" gradientUnits="userSpaceOnUse" x1="-783.0073" y1="1282.6073" x2="-796.584" y2="1269.0305" gradientTransform="matrix(0 1 1 0 -1240.2073 832.2073)">
					<stop  offset="0" style="stop-color:#C5707C"/>
					<stop  offset="1" style="stop-color:#ED986C"/>
				</linearGradient>
				<polygon class="st9" points="39,39 25.4,39 39,52.6 				"/>
				
					<linearGradient id="SVGID_9_" gradientUnits="userSpaceOnUse" x1="-1741.2146" y1="450.4" x2="-1754.7915" y2="436.8232" gradientTransform="matrix(-1 0 0 1 -1712.4146 -408)">
					<stop  offset="0" style="stop-color:#F3C07A"/>
					<stop  offset="1" style="stop-color:#ED986C"/>
				</linearGradient>
				<polygon class="st10" points="39,39 39,25.4 25.4,39 				"/>
				
					<linearGradient id="SVGID_10_" gradientUnits="userSpaceOnUse" x1="-909.0073" y1="-507.8073" x2="-922.5841" y2="-521.3842" gradientTransform="matrix(0 -1 -1 0 -472.2073 -880.2073)">
					<stop  offset="0" style="stop-color:#5CB6A5"/>
					<stop  offset="0.9982" style="stop-color:#99CC99"/>
				</linearGradient>
				<polygon class="st11" points="39,39 52.6,39 39,25.4 				"/>
			</g>
		</g>
	</g>
</g>
</svg>
