<svg id="Layer_1" data-name="Layer 1" xmlns="http://www.w3.org/2000/svg" xmlns:xlink="http://www.w3.org/1999/xlink" viewBox="0 0 50.36 48.91"><defs><style>.cls-1{fill:url(#linear-gradient);}.cls-2{fill:url(#linear-gradient-2);}.cls-3{fill:url(#linear-gradient-3);}.cls-4{fill:url(#linear-gradient-4);}.cls-5{fill:url(#linear-gradient-5);}.cls-6{fill:url(#linear-gradient-6);}.cls-7{fill:url(#linear-gradient-7);}.cls-8{fill:url(#linear-gradient-8);}</style><linearGradient id="linear-gradient" x1="4.01" y1="12.89" x2="46.68" y2="37.53" gradientUnits="userSpaceOnUse"><stop offset="0" stop-color="#5cb5a4"/><stop offset="1" stop-color="#9bcc9a"/></linearGradient><linearGradient id="linear-gradient-2" x1="9.41" y1="35.62" x2="10.02" y2="35.97" xlink:href="#linear-gradient"/><linearGradient id="linear-gradient-3" x1="10.39" y1="36.54" x2="11.11" y2="36.95" xlink:href="#linear-gradient"/><linearGradient id="linear-gradient-4" x1="11.34" y1="37.85" x2="12.13" y2="38.31" xlink:href="#linear-gradient"/><linearGradient id="linear-gradient-5" x1="12.5" y1="39.22" x2="13.41" y2="39.75" xlink:href="#linear-gradient"/><linearGradient id="linear-gradient-6" x1="14.21" y1="40.23" x2="15.12" y2="40.75" xlink:href="#linear-gradient"/><linearGradient id="linear-gradient-7" x1="16.24" y1="40.55" x2="17.09" y2="41.05" xlink:href="#linear-gradient"/><linearGradient id="linear-gradient-8" x1="18.13" y1="40.33" x2="18.95" y2="40.8" xlink:href="#linear-gradient"/></defs><title>github</title><path class="cls-1" d="M25.34.58a24.63,24.63,0,0,0-7.79,48c1.23.23,1.68-.53,1.68-1.18s0-2.53,0-4.59c-6.85,1.49-8.3-2.91-8.3-2.91-1.12-2.85-2.73-3.6-2.73-3.6-2.23-1.53.17-1.5.17-1.5a5.18,5.18,0,0,1,3.78,2.54c2.2,3.77,5.76,2.68,7.17,2a5.25,5.25,0,0,1,1.56-3.29c-5.47-.62-11.22-2.73-11.22-12.17a9.53,9.53,0,0,1,2.54-6.61,8.85,8.85,0,0,1,.24-6.52s2.07-.66,6.77,2.53a23.36,23.36,0,0,1,12.34,0c4.7-3.19,6.77-2.53,6.77-2.53a8.84,8.84,0,0,1,.24,6.52,9.51,9.51,0,0,1,2.53,6.61c0,9.46-5.76,11.54-11.25,12.15a5.89,5.89,0,0,1,1.67,4.56c0,3.3,0,5.95,0,6.76,0,.66.44,1.42,1.69,1.18a24.63,24.63,0,0,0-7.8-48Z"/><path class="cls-2" d="M10,35.95c-.05.12-.25.16-.42.08s-.28-.25-.22-.37.25-.16.42-.08.28.25.22.37Z"/><path class="cls-3" d="M11,37.06c-.12.11-.35.06-.5-.11a.38.38,0,0,1-.07-.51c.12-.11.34-.06.51.11s.19.4.07.51Z"/><path class="cls-4" d="M12,38.48c-.15.11-.4,0-.55-.21s-.15-.48,0-.59.4,0,.55.21.15.49,0,.59Z"/><path class="cls-5" d="M13.34,39.85c-.14.15-.42.11-.63-.09a.47.47,0,0,1-.14-.63c.14-.15.43-.11.64.09s.28.48.14.63Z"/><path class="cls-6" d="M15.17,40.64c-.06.19-.34.28-.62.2s-.46-.31-.4-.51.34-.29.62-.2.46.31.4.5Z"/><path class="cls-7" d="M17.19,40.79c0,.2-.23.37-.52.38s-.53-.16-.54-.36.23-.37.53-.38.53.16.53.36Z"/><path class="cls-8" d="M19.06,40.47c0,.2-.17.4-.46.46s-.55-.07-.59-.27.17-.41.46-.46.55.07.59.27Z"/></svg>