<svg id="Layer_1" data-name="Layer 1" xmlns="http://www.w3.org/2000/svg" xmlns:xlink="http://www.w3.org/1999/xlink" viewBox="0 0 50.7 50.45"><defs><style>.cls-1{fill:url(#linear-gradient);}.cls-2{fill:url(#linear-gradient-2);}.cls-3{fill:url(#linear-gradient-3);}.cls-4{fill:url(#linear-gradient-4);}.cls-5{fill:url(#linear-gradient-5);}.cls-6{fill:url(#linear-gradient-6);}</style><linearGradient id="linear-gradient" x1="28.86" y1="24.01" x2="39.28" y2="30.02" gradientUnits="userSpaceOnUse"><stop offset="0" stop-color="#767ea1"/><stop offset="1" stop-color="#62a4ae"/></linearGradient><linearGradient id="linear-gradient-2" x1="4.02" y1="12.84" x2="46.68" y2="37.47" xlink:href="#linear-gradient"/><linearGradient id="linear-gradient-3" x1="17.58" y1="30.63" x2="33.64" y2="39.91" xlink:href="#linear-gradient"/><linearGradient id="linear-gradient-4" x1="37.86" y1="14.73" x2="37.86" y2="14.73" xlink:href="#linear-gradient"/><linearGradient id="linear-gradient-5" x1="17.01" y1="11.36" x2="32.99" y2="20.6" xlink:href="#linear-gradient"/><linearGradient id="linear-gradient-6" x1="11.41" y1="26.6" x2="21.8" y2="32.6" xlink:href="#linear-gradient"/></defs><title>mail</title><polygon class="cls-1" points="26.39 28.28 36.31 35.17 36.31 21.45 31.92 24.47 26.39 28.28"/><path class="cls-2" d="M25.35.53A24.62,24.62,0,1,0,50,25.16,24.62,24.62,0,0,0,25.35.53ZM36.91,36.32h-24a2.45,2.45,0,0,1-2.45-2.45V17.17a2.45,2.45,0,0,1,2.45-2.45h25a2.45,2.45,0,0,1,2.44,2.44v.71h0v16C40.25,35.66,39.48,36.29,36.91,36.32Z"/><path class="cls-3" d="M25.34,28.87a.6.6,0,0,1-.34-.11l-.18-.12L14.64,35.72H36.05L25.87,28.64A2.25,2.25,0,0,1,25.34,28.87Z"/><polygon class="cls-4" points="37.86 14.73 37.86 14.73 37.86 14.73 37.86 14.73"/><polygon class="cls-5" points="36.04 15.33 14.72 15.33 25.34 23.2 36.04 15.33"/><polygon class="cls-6" points="24.29 28.27 14.38 21.45 14.38 35.17 24.3 28.28 24.29 28.27"/></svg>