<svg id="Layer_1" data-name="Layer 1" xmlns="http://www.w3.org/2000/svg" xmlns:xlink="http://www.w3.org/1999/xlink" viewBox="0 0 50.62 50.21"><defs><style>.cls-1{fill:url(#linear-gradient);}.cls-2{fill:url(#linear-gradient-2);}</style><linearGradient id="linear-gradient" x1="21.85" y1="22.89" x2="28.76" y2="26.88" gradientTransform="translate(9.26 -6.77) rotate(18.6)" gradientUnits="userSpaceOnUse"><stop offset="0" stop-color="#ef996b"/><stop offset="1" stop-color="#c3707c"/></linearGradient><linearGradient id="linear-gradient-2" x1="4" y1="12.64" x2="46.66" y2="37.27" gradientTransform="matrix(1, 0, 0, 1, 0, 0)" xlink:href="#linear-gradient"/></defs><title>slack</title><rect class="cls-1" x="22.45" y="22.08" width="5.72" height="5.6" transform="translate(-6.62 9.37) rotate(-18.6)"/><path class="cls-2" d="M25.33.33A24.62,24.62,0,1,0,50,25,24.62,24.62,0,0,0,25.33.33Zm12.5,28.52-2.63.89.91,2.69A2.48,2.48,0,1,1,31.4,34l-.91-2.69-5.42,1.82L26,35.87a2.48,2.48,0,1,1-4.7,1.58l-.92-2.72-2.51.85a2.48,2.48,0,0,1-1.58-4.71L18.78,30,17,24.72l-2.58.87a2.48,2.48,0,0,1-1.58-4.71L15.42,20l-.85-2.54a2.48,2.48,0,0,1,4.71-1.58l.85,2.54,5.42-1.82L24.67,14a2.48,2.48,0,1,1,4.7-1.58L30.24,15l2.57-.86a2.48,2.48,0,0,1,1.58,4.71l-2.57.86L33.61,25l2.63-.89a2.48,2.48,0,0,1,1.58,4.71Z"/></svg>