<svg id="Layer_1" data-name="Layer 1" xmlns="http://www.w3.org/2000/svg" xmlns:xlink="http://www.w3.org/1999/xlink" viewBox="0 0 50.24 50.28"><defs><style>.cls-1{fill:url(#linear-gradient);}</style><linearGradient id="linear-gradient" x1="3.85" y1="12.81" x2="46.5" y2="37.44" gradientUnits="userSpaceOnUse"><stop offset="0" stop-color="#f1bf7a"/><stop offset="1" stop-color="#ed986c"/></linearGradient></defs><title>twitter</title><path class="cls-1" d="M25.17.5A24.62,24.62,0,1,0,49.8,25.13,24.63,24.63,0,0,0,25.17.5Zm6.62,39c-1,0-6.63-.13-8.07-.13a10.49,10.49,0,0,1-8.91-10.56c0-1.47,0-2.94,0-4.4s0-2.73,0-4.09c0-.4,0-.79,0-1.19,0-2.07-.18-4.41.48-6.4a3.07,3.07,0,0,1,3.2-2.12c3.59,0,3.83,3.66,3.84,7.34H32.68c1.65,0,2.87,1.67,2.87,4.22s-2.66,3.12-4.06,3.12H22.18c0,1.56-.1,2.83-.1,3.61,0,1.63.64,3.38,4.6,3.38h5.58c1.39,0,3.46,1.06,3.46,4S32.81,39.47,31.79,39.47Z"/></svg>